<svg width="64" height="64" viewBox="0 0 64 64" fill="none" xmlns="http://www.w3.org/2000/svg">
  <!-- Calendar base -->
  <rect x="4" y="10" width="56" height="50" rx="4" fill="#7F1D1D"/>
  
  <!-- Calendar top bar -->
  <rect x="4" y="10" width="56" height="14" rx="4" fill="#991B1B"/>
  
  <!-- Calendar rings -->
  <rect x="16" y="6" width="4" height="10" rx="2" fill="#FEF2F2"/>
  <rect x="44" y="6" width="4" height="10" rx="2" fill="#FEF2F2"/>
  
  <!-- Grid lines (schedule) -->
  <rect x="10" y="28" width="44" height="2" rx="1" fill="#FEF2F2" opacity="0.3"/>
  <rect x="10" y="38" width="44" height="2" rx="1" fill="#FEF2F2" opacity="0.3"/>
  <rect x="10" y="48" width="44" height="2" rx="1" fill="#FEF2F2" opacity="0.3"/>
  
  <!-- Schedule blocks (representing classes) -->
  <rect x="12" y="30" width="10" height="6" rx="1" fill="#FEF2F2"/>
  <rect x="27" y="30" width="14" height="6" rx="1" fill="#FECACA"/>
  <rect x="46" y="30" width="6" height="6" rx="1" fill="#FEF2F2"/>
  
  <rect x="12" y="40" width="8" height="6" rx="1" fill="#FECACA"/>
  <rect x="24" y="40" width="12" height="6" rx="1" fill="#FEF2F2"/>
  <rect x="40" y="40" width="12" height="6" rx="1" fill="#FECACA"/>
  
  <rect x="12" y="50" width="14" height="6" rx="1" fill="#FEF2F2"/>
  <rect x="30" y="50" width="8" height="6" rx="1" fill="#FECACA"/>
  <rect x="42" y="50" width="10" height="6" rx="1" fill="#FEF2F2"/>
  
  <!-- Clock overlay (small, bottom right) -->
  <circle cx="52" cy="52" r="10" fill="#FBBF24" stroke="#7F1D1D" stroke-width="2"/>
  <path d="M52 46V52L56 54" stroke="#7F1D1D" stroke-width="2" stroke-linecap="round" stroke-linejoin="round"/>
</svg>
